<?xml version="1.0" standalone="no"?><!DOCTYPE svg PUBLIC "-//W3C//DTD SVG 1.1//EN" "http://www.w3.org/Graphics/SVG/1.1/DTD/svg11.dtd"><svg t="1724923778871" class="icon" viewBox="0 0 1024 1024" version="1.1" xmlns="http://www.w3.org/2000/svg" p-id="6772" data-spm-anchor-id="a313x.search_index.0.i0.593e3a81f2kidP" width="48" height="48" xmlns:xlink="http://www.w3.org/1999/xlink"><path d="M326.252 535.108v10.087c0 103.234 83.662 187.487 186.896 187.487 103.24 0 186.896-84.253 186.896-187.487v-10.087H326.252z m283.016-71.795c22.545 0 40.941-18.391 40.941-40.936s-18.396-40.941-40.941-40.941-40.936 18.396-40.936 40.941 18.391 40.936 40.936 40.936z m-190.454 0c22.545 0 40.936-18.391 40.936-40.936s-18.391-40.941-40.936-40.941-40.942 18.396-40.942 40.941 18.397 40.936 40.942 40.936z" fill="#f4ea2a" p-id="6773"></path><path d="M1024 513.154C1024 231.327 795.572 2.308 513.148 2.308 230.73 2.308 2.893 231.327 2.893 513.154c0 157.821 71.795 299.035 183.929 392.778V545.195c0-180.962 145.96-327.513 326.326-327.513 180.372 0 326.326 146.551 326.326 327.513v360.737C952.802 812.189 1024 670.976 1024 513.154z" fill="#f4ea2a" p-id="6774"></path></svg>